<?xml version="1.0" standalone="no"?>
<!DOCTYPE svg PUBLIC "-//W3C//DTD SVG 20010904//EN"
 "http://www.w3.org/TR/2001/REC-SVG-20010904/DTD/svg10.dtd">
<svg version="1.0" xmlns="http://www.w3.org/2000/svg"
 width="300.000000pt" height="300.000000pt" viewBox="0 0 300.000000 300.000000"
 preserveAspectRatio="xMidYMid meet">
<metadata>
Created by potrace 1.11, written by Peter Selinger 2001-2013
</metadata>
<g transform="translate(0.000000,300.000000) scale(0.100000,-0.100000)"
fill="#000000" stroke="none">
<path d="M1947 2764 c-1 -1 -35 -5 -76 -8 -41 -4 -78 -9 -82 -12 -4 -2 -20 -6
-36 -8 -70 -10 -187 -51 -288 -101 -107 -54 -145 -74 -155 -85 -3 -3 -21 -17
-40 -30 -143 -99 -291 -276 -379 -449 -64 -129 -117 -296 -125 -399 -1 -15 -4
-32 -7 -37 -7 -14 -3 -230 5 -295 43 -318 207 -616 446 -809 25 -20 47 -39 48
-43 2 -5 10 -8 18 -8 8 0 14 -4 14 -8 0 -15 137 -92 260 -145 37 -17 171 -57
205 -62 11 -2 30 -6 43 -9 32 -7 178 -19 237 -19 87 0 280 29 335 50 8 3 24 8
35 10 11 2 24 8 29 13 6 6 16 10 24 10 33 0 272 129 272 147 0 7 -102 153
-112 159 -4 3 -20 -3 -36 -13 -111 -76 -290 -140 -437 -159 -89 -11 -252 -6
-315 10 -14 3 -36 8 -50 10 -99 18 -233 77 -348 153 -75 49 -198 162 -246 224
-63 83 -150 247 -165 311 -1 4 -8 26 -16 48 -8 22 -14 43 -14 45 0 3 -5 31
-12 62 -25 121 -12 392 22 455 5 10 7 18 4 18 -16 0 109 272 139 303 7 7 22
28 35 47 67 99 263 260 381 312 25 11 59 26 75 33 39 17 175 53 234 61 105 15
238 11 364 -11 85 -15 248 -81 334 -135 12 -8 24 -12 26 -10 27 30 107 153
107 164 0 15 -9 20 -130 81 -67 33 -193 81 -233 89 -12 2 -40 8 -62 14 -57 15
-146 24 -243 26 -46 1 -84 0 -85 0z"/>
<path d="M1674 2028 c-87 -29 -156 -86 -197 -163 -24 -46 -26 -52 -36 -118 -5
-34 -4 -50 4 -53 6 -3 54 -3 106 -2 75 2 94 6 94 18 1 74 81 140 151 125 63
-14 83 -28 103 -69 36 -74 30 -86 -179 -389 -41 -60 -81 -120 -88 -133 -7 -13
-17 -24 -23 -24 -5 0 -9 -4 -9 -10 0 -8 -62 -104 -88 -135 -16 -20 -70 -100
-73 -110 -3 -6 98 -10 286 -10 288 0 315 2 315 33 0 6 3 12 8 14 15 6 113 158
103 159 -6 1 -78 2 -161 3 -93 0 -150 5 -149 11 2 10 30 53 146 220 110 157
114 165 132 255 12 64 -1 144 -35 210 -77 150 -251 221 -410 168z"/>
<path d="M2335 2016 c-54 -74 -115 -169 -111 -175 2 -3 40 -5 84 -4 67 1 81
-1 84 -15 2 -10 3 -207 2 -439 0 -233 2 -424 5 -424 3 -1 50 -2 104 -3 l97 -1
1 40 c1 49 0 1014 0 1036 -1 13 -19 16 -122 15 l-121 0 -23 -30z"/>
<path d="M2693 985 c0 -8 4 -12 9 -9 4 3 8 0 8 -6 0 -7 5 -10 11 -8 12 4 13
23 2 23 -5 0 -13 3 -19 7 -6 4 -11 1 -11 -7z"/>
<path d="M2671 964 c0 -11 3 -14 6 -6 3 7 2 16 -1 19 -3 4 -6 -2 -5 -13z"/>
</g>
</svg>
